<?xml version="1.0" encoding="utf-8"?><!-- Uploaded to: SVG Repo, www.svgrepo.com, Generator: SVG Repo Mixer Tools -->
<svg fill="#000000" width="800px" height="800px" viewBox="0 0 24 24" id="edit-user-left-4" data-name="Flat Color" xmlns="http://www.w3.org/2000/svg" class="icon flat-color"><path id="primary" d="M13,19.61a2,2,0,0,0-.59-1.41L7,12.81a5.94,5.94,0,0,1,1.65-.66,6,6,0,1,1,8.64,0A6,6,0,0,1,22,18a4,4,0,0,1-4,4H13Z" style="fill: rgb(0, 0, 0);"></path><path id="secondary" d="M5.09,12.29l6.62,6.61a1.05,1.05,0,0,1,.29.71V21a1,1,0,0,1-1,1H9.61a1,1,0,0,1-.71-.29L2.29,15.09a1,1,0,0,1,0-1.4l1.4-1.4A1,1,0,0,1,5.09,12.29Z" style="fill: rgb(44, 169, 188);"></path></svg>